<svg width="437" height="316" xmlns="http://www.w3.org/2000/svg">
 <defs>
  <linearGradient gradientUnits="objectBoundingBox" y2="0.924" x2="1.032" y1="0.043" x1="1.047" id="linear-gradient">
   <stop stop-color="#c2c2c2" offset="0"/>
   <stop stop-color="#9f9f9f" offset="1"/>
  </linearGradient>
 </defs>
 <g>
  <title>Layer 1</title>
  <g data-name="Group 395" id="Group_395">
   <path fill="#f2f2f2" d="m5,0l427,0a5,5 0 0 1 5,5l0,306a5,5 0 0 1 -5,5l-427,0a5,5 0 0 1 -5,-5l0,-306a5,5 0 0 1 5,-5z" data-name="Path 134" id="Path_134"/>
   <g opacity="0.55" id="layer1">
    <path fill="#f2f2f2" d="m138.01501,93.256l161.457,0a7.014,7.014 0 0 1 7.014,7.014l0,65a7.014,7.014 0 0 1 -7.014,7.014l-161.457,0a7.014,7.014 0 0 1 -7.014,-7.018l0,-65a7.014,7.014 0 0 1 7.014,-7.01z" id="rect1017"/>
    <g id="g1015">
     <rect transform="rotate(-16.343 172.288 126.338)" x="172.28799" y="126.338" fill="#9f9f9f" rx="8.397" height="48.142" width="43.895" id="rect1002"/>
     <g transform="rotate(16.321 204.989 93.001)" id="g1000">
      <rect x="204.98899" y="93.001" fill="url(#linear-gradient)" stroke-width="5.398" stroke-linejoin="round" stroke-linecap="round" stroke="#fff" rx="4.596" height="61.709" width="57.382" id="rect961"/>
      <g id="g875">
       <rect x="211.33299" y="98.618" stroke-width="2.257" stroke-linejoin="round" stroke-linecap="round" stroke="#fff" fill="#ccc" height="41.342" width="45.119" id="rect3338"/>
       <rect x="211.33299" y="98.618" stroke-width="2.257" stroke-linejoin="round" stroke-linecap="round" stroke="#fff" fill="#fff" height="19.293" width="45.119" id="rect3342"/>
       <path fill-rule="evenodd" stroke-width="2.257" stroke-linejoin="round" stroke-linecap="round" stroke="#fff" fill="#ccc" d="m214.08899,117.911l3.534,-4.919l5.561,-4.149l1.459,1.707l1.246,-3.554l0.753,-0.274l1.228,-2.592l16.537,16.537" id="path3344"/>
       <path fill-rule="evenodd" stroke-width="2.257" stroke-linejoin="round" stroke-linecap="round" stroke="#fff" fill="#b3b3b3" d="m227.86999,104.13q0.564,2.27 1,4.571q0.328,1.745 0.58,3.5l-2.03,-0.655l-4.236,-2.703l0.489,4.265l-0.148,2.278l0.924,2.791l6.724,-1.08l7.723,-1.942l-4.393,-7.114l-0.891,1.372l-2.492,-2.033l-3.25,-3.25z" id="path3390-0"/>
       <path fill-rule="evenodd" stroke-width="2.257" stroke-linejoin="round" stroke-linecap="round" stroke="#fff" fill="#ccc" d="m225.11399,120.668l7.524,-6.838l1.7,-0.889l2.176,-4.06l2.381,-1.994l16.537,16.537" id="path3358"/>
       <path fill-rule="evenodd" stroke-width="2.257" stroke-linejoin="round" stroke-linecap="round" stroke="#fff" fill="#b3b3b3" d="m238.89499,106.887l3.3,7.434l0,5.533l2.063,1.788a7.493,7.493 0 0 1 2.062,-1.443a25.381,25.381 0 0 1 4.334,-1.251a4.781,4.781 0 0 0 1.673,-0.723a2.741,2.741 0 0 0 0.347,-0.312l-2.754,0l-3.725,-3.726l-2.741,-4.5l-0.942,0.812l-3.617,-3.612z" id="path3386"/>
       <path fill-rule="evenodd" stroke-width="2.257" stroke-linejoin="round" stroke-linecap="round" stroke="#fff" fill="#fff" d="m225.11399,139.96c-0.038,-0.882 -0.81,-1.618 1.573,-2.818c2.924,-1.472 11.566,-3.3 13.979,-5.511c1.785,-1.638 -6.469,-3.461 -5.055,-5.427c0.642,-0.893 5.422,-1.834 7.547,-2.781c2.013,-0.9 1.391,-1.819 2.885,-2.754c1.444,-0.902 6.28,-1.816 6.633,-2.758c-0.957,0.967 -6.324,1.875 -8.269,2.756c-2.052,0.93 -1.972,1.831 -4.541,2.709c-2.768,0.946 -8.19,1.888 -9.436,2.8c-2.61,1.917 4.305,3.914 1.489,5.512c-3.815,2.165 -13.72,3.978 -17.829,5.512c-2.84,1.065 -2.611,1.635 -2.757,2.76" id="path3370"/>
      </g>
     </g>
    </g>
   </g>
   <text x="219" y="216.76801" font-family="Poppins-Regular, Poppins" font-size="16" fill="#bfbfbf" id="text1021">
    <tspan id="svg_1" y="0" x="694.512">Choose Image to Edit</tspan>
   </text>
  </g>
  <text transform="matrix(0.921862 0 0 0.921862 5.74311 17.1045)" stroke="null" xml:space="preserve" text-anchor="start" font-family="'Arimo'" font-size="24" id="svg_2" y="213.5" x="93.83477" stroke-width="0" fill="#9f9f9f">Elegir imagen para editar</text>
 </g>
</svg>